<?xml version="1.0" standalone="no"?>
<!DOCTYPE svg PUBLIC "-//W3C//DTD SVG 1.1//EN" "http://www.w3.org/Graphics/SVG/1.1/DTD/svg11.dtd" >
<svg xmlns="http://www.w3.org/2000/svg">
<metadata>Generated by IcoMoon</metadata>
<defs>
<font id="icomoon" horiz-adv-x="1024">
<font-face units-per-em="1024" ascent="960" descent="-64" />
<missing-glyph horiz-adv-x="1024" />
<glyph unicode="&#x20;" horiz-adv-x="512" d="" />
<glyph unicode="&#xe900;" glyph-name="ticket" d="M338.44 199.056l17.429 4.688 15.503-9.242c49.36-29.425 105.57-45.17 164.147-45.17 177.907 0 322.185 144.855 322.185 323.644s-144.278 323.644-322.185 323.644c-177.907 0-322.185-144.855-322.185-323.644 0-57.244 14.86-112.263 42.703-160.934l8.714-15.232-46.508-174.272-23.787-6.399-17.437 17.402 6.351 23.8 155.070 41.715zM900.37 472.977c0-202.315-163.342-366.31-364.852-366.31-67.958 0-131.521 18.714-185.995 51.188l-178.857-48.114 48.335 181.117c-30.695 53.657-48.335 115.802-48.335 182.12 0 202.315 163.342 366.31 364.852 366.31s364.852-163.996 364.852-366.31zM661.333 576h21.333v42.667h-298.667v-42.667h21.333zM661.333 448h21.333v42.667h-298.667v-42.667h21.333zM576 320h21.333v42.667h-213.333v-42.667h21.333z" />
<glyph unicode="&#xe901;" glyph-name="ticketed" d="M338.44 199.056l17.429 4.688 15.503-9.242c49.36-29.425 105.57-45.17 164.147-45.17 177.907 0 322.185 144.855 322.185 323.644s-144.278 323.644-322.185 323.644c-177.907 0-322.185-144.855-322.185-323.644 0-57.244 14.86-112.263 42.703-160.934l8.714-15.232-46.508-174.272-23.787-6.399-17.437 17.402 6.351 23.8 155.070 41.715zM900.37 472.977c0-202.315-163.342-366.31-364.852-366.31-67.958 0-131.521 18.714-185.995 51.188l-178.857-48.114 48.335 181.117c-30.695 53.657-48.335 115.802-48.335 182.12 0 202.315 163.342 366.31 364.852 366.31s364.852-163.996 364.852-366.31zM448.181 362.974l19.795-19.795 307.331 298.771-39.583 40.717-287.258-279.258 39.868-0.281-106.848 106.848-40.154-40.154z" />
<glyph unicode="&#xe902;" glyph-name="reply" d="M111.402 507.543l9.693 7.099 342.915-268.455v-33.402l-16.366-7.972-26.301 20.59v200.524h42.667c170.442 0 318.19-54.585 413.654-156.41 4.661-22.21 7.098-45.108 7.098-68.507v-9.008c-13.686 20.691-29.319 39.711-46.674 57.056-26.706 158.834-183.679 282.795-374.078 282.795h-42.667v202.679l25.21 18.462 17.457-8.853v-31.247l-343.774-251.765-9.46 7.406 0.626 39.009zM464.010 383.259v-191.259l-378.677 296.452 378.677 277.326v-191.259c231.414 0 420.752-167.294 420.752-373.51v-9.008c-77.389 117.004-217.054 180.562-378.085 190.019-14.858 0.849-28.698 1.24-42.667 1.24z" />
<glyph unicode="&#xe903;" glyph-name="reply2" d="M111.402 507.543l9.693 7.099 342.915-268.455v-33.402l-16.366-7.972-26.301 20.59v200.524h42.667c170.442 0 318.19-54.585 413.654-156.41 4.661-22.21 7.098-45.108 7.098-68.507v-9.008c-13.686 20.691-29.319 39.711-46.674 57.056-26.706 158.834-183.679 282.795-374.078 282.795h-42.667v202.679l25.21 18.462 17.457-8.853v-31.247l-343.774-251.765-9.46 7.406 0.626 39.009zM464.010 383.259v-191.259l-378.677 296.452 378.677 277.326v-191.259c231.414 0 420.752-167.294 420.752-373.51v-9.008c-77.389 117.004-217.054 180.562-378.085 190.019-14.858 0.849-28.698 1.24-42.667 1.24z" />
<glyph unicode="&#xe904;" glyph-name="post_reply" d="M338.744 243.771l31.139-31.139 483.45 469.985-62.266 64.050-451.874-439.289 62.715-0.443-168.078 168.078-63.164-63.164z" />
<glyph unicode="&#xe905;" glyph-name="park" d="M857.6 228.267c0-51.343-47.003-93.867-106.001-93.867h-474.931c-58.998 0-106.001 42.523-106.001 93.867v115.2h-42.667v-115.2c0-75.913 67.006-136.533 148.668-136.533h474.931c81.662 0 148.668 60.62 148.668 136.533v115.2h-42.667v-115.2zM659.891 355.272l30.17 30.17-315.077 315.077-30.17-30.17zM690.061 670.349l-30.17 30.17-315.077-315.077 30.17-30.17z" />
<glyph unicode="&#xe906;" glyph-name="plus_close" d="M856.889 384h39.111v64h-704v-64h39.111z" />
<glyph unicode="&#xe907;" glyph-name="checkbox_unselected_16px" d="M64 832l64 64v-896l-64 64h896l-64-64v896l64-64h-896zM960 896v-896h-896v896h896z" />
<glyph unicode="&#xe908;" glyph-name="plus" d="M576 448h320v-64h-320v-320h-64v320h-320v64h320v320h64v-320z" />
<glyph unicode="&#xe909;" glyph-name="checkbox-3" d="M0 960v-1024h1024v1024h-1024zM428.416 234.667l-192 184.277 59.52 61.227 131.413-125.312 299.563 306.475 60.672-60.117-359.168-366.549z" />
<glyph unicode="&#xe90a;" glyph-name="question" d="M460.8 243.2h102.401v-102.401h-102.401v102.401zM511.999 960c-282.768 0-511.999-229.231-511.999-511.999s229.231-511.999 511.999-511.999 511.999 229.231 511.999 511.999-229.229 511.999-511.999 511.999zM511.999 28.674c-231.588 0-419.328 187.74-419.328 419.328s187.74 419.328 419.328 419.328c231.47-0.281 419.044-187.855 419.328-419.328 0-231.59-187.737-419.328-419.328-419.328zM711.167 599.040c-26.338 109.999-136.86 177.818-246.859 151.481-92.479-22.142-157.55-105.029-157.109-200.121h102.401c4.807 56.554 54.55 98.503 111.103 93.696s98.503-54.55 93.696-111.103c-10.459-50.89-56.112-86.806-108.031-84.991-25.166 0-45.569-20.402-45.569-45.569v0-108.031h102.401v58.368c108.288 27.924 174.156 137.549 147.967 246.271z" />
<glyph unicode="&#xe90b;" glyph-name="refresh" d="M512 789.333c-187.733 0-341.333-153.6-341.333-341.333s153.6-341.333 341.333-341.333c157.867 0 290.133 110.933 328.533 256h-89.6c-34.133-98.133-128-170.667-238.933-170.667-140.8 0-256 115.2-256 256s115.2 256 256 256c72.533 0 132.267-29.867 179.2-76.8l-136.533-136.533h298.667v298.667l-102.4-102.4c-59.733 64-145.067 102.4-238.933 102.4z" />
<glyph unicode="&#xe90c;" glyph-name="publish" d="M857.6 228.267c0-51.343-47.003-93.867-106.001-93.867h-474.931c-58.998 0-106.001 42.523-106.001 93.867v115.2h-42.667v-115.2c0-75.913 67.006-136.533 148.668-136.533h474.931c81.662 0 148.668 60.62 148.668 136.533v115.2h-42.667v-115.2zM448.181 362.974l19.795-19.795 307.331 298.771-39.583 40.717-287.258-279.258 39.868-0.281-106.848 106.848-40.154-40.154z" />
<glyph unicode="&#xe90d;" glyph-name="reset" d="M808.005 722.412l-30.17 30.17-551.385-551.385 30.17-30.17zM256.62 752.581l-30.17-30.17 551.385-551.385 30.17 30.17z" />
<glyph unicode="&#xe90e;" glyph-name="filter_open" d="M128 768l64 64v-768l-64 64h768l-64-64v768l64-64h-768zM896 832v-768h-768v768h768zM480 288v-32h64v384h-64v-32zM352 480h-32v-64h384v64h-32z" />
<glyph unicode="&#xe90f;" glyph-name="search" d="M393.314 297.523c-148.645 0-269.163 120.519-269.163 269.163s120.519 269.163 269.163 269.163c148.645 0 269.163-120.519 269.163-269.163s-120.519-269.163-269.163-269.163zM393.314 878.516c-172.209 0-311.83-139.621-311.83-311.83s139.621-311.83 311.83-311.83c172.209 0 311.83 139.621 311.83 311.83s-139.621 311.83-311.83 311.83zM922.905 6.926l30.17 30.17-339.264 339.264-30.17-30.17z" />
<glyph unicode="&#xe910;" glyph-name="minimize_16px" d="M128 768l64 64v-768l-64 64h768l-64-64v768l64-64h-768zM896 832v-768h-768v768h768zM352 480h-32v-64h384v64h-32z" />
<glyph unicode="&#xe911;" glyph-name="share" d="M857.6 228.267c0-51.343-47.003-93.867-106.001-93.867h-474.931c-58.998 0-106.001 42.523-106.001 93.867v115.2h-42.667v-115.2c0-75.913 67.006-136.533 148.668-136.533h474.931c81.662 0 148.668 60.62 148.668 136.533v115.2h-42.667v-115.2zM512 665.043h42.667v-371.060h-42.667zM520.103 678.273l15.085 15.085 144.94-144.94-30.17-30.17-129.855 129.855h30.17l-129.855-129.855-30.17 30.17z" />
<glyph unicode="&#xe912;" glyph-name="cheveron_close" d="M559.846 541.017l-65.734 0.002 340.575-320c19.32-18.152 49.697-17.206 67.849 2.113s17.206 49.697-2.113 67.849l-340.575 320c-18.474 17.358-47.26 17.358-65.734 0.002l-334.98-314.711c-19.321-18.152-20.268-48.529-2.117-67.849s48.529-20.268 67.849-2.117l334.98 314.711z" />
<glyph unicode="&#xe913;" glyph-name="cheveron_open" d="M494.114 221.017c18.474-17.357 47.261-17.356 65.734 0.002l340.575 320c19.32 18.152 20.266 48.53 2.113 67.849s-48.53 20.266-67.849 2.113l-340.575-320 65.734 0.002-334.98 314.711c-19.321 18.152-49.698 17.204-67.849-2.117s-17.204-49.698 2.117-67.849l334.98-314.711z" />
<glyph unicode="&#xe914;" glyph-name="download" horiz-adv-x="171" d="M170.667 874.667c0-47.128-38.205-85.333-85.333-85.333s-85.333 38.205-85.333 85.333c0 47.128 38.205 85.333 85.333 85.333s85.333-38.205 85.333-85.333zM170.667 448c0-47.128-38.205-85.333-85.333-85.333s-85.333 38.205-85.333 85.333c0 47.128 38.205 85.333 85.333 85.333s85.333-38.205 85.333-85.333zM170.667 21.333c0-47.128-38.205-85.333-85.333-85.333s-85.333 38.205-85.333 85.333c0 47.128 38.205 85.333 85.333 85.333s85.333-38.205 85.333-85.333z" />
<glyph unicode="&#xe915;" glyph-name="SurveyFlow_24px" d="M597.333 789.333l97.707-97.707-122.88-122.88 60.587-60.587 122.88 122.88 97.707-97.707v256h-256zM426.667 789.333h-256v-256l97.707 97.707 200.96-200.533v-323.84h85.333v358.827l-225.707 226.133 97.707 97.707z" />
<glyph unicode="&#xe916;" glyph-name="edit_24px" d="M170.667 250.785v-144.119h144.119l417.185 420.978-144.119 144.119-417.185-420.978zM841.956 637.63c15.17 15.17 15.17 37.926 0 53.096l-87.23 87.23c-15.17 15.17-37.926 15.17-53.096 0l-68.267-68.267 144.119-144.119 64.474 72.059z" />
<glyph unicode="&#xe917;" glyph-name="edit_hover_24px" d="M170.667 250.785v-144.119h144.119l417.185 420.978-144.119 144.119-417.185-420.978zM841.956 637.63c15.17 15.17 15.17 37.926 0 53.096l-87.23 87.23c-15.17 15.17-37.926 15.17-53.096 0l-68.267-68.267 144.119-144.119 64.474 72.059z" />
<glyph unicode="&#xe918;" glyph-name="post_reply_hover_24px" d="M338.744 243.771l31.139-31.139 483.45 469.985-62.266 64.050-451.874-439.289 62.715-0.443-168.078 168.078-63.164-63.164z" />
<glyph unicode="&#xe919;" glyph-name="post_reply_inactive_24px" d="M338.744 243.771l31.139-31.139 483.45 469.985-62.266 64.050-451.874-439.289 62.715-0.443-168.078 168.078-63.164-63.164z" />
<glyph unicode="&#xe91a;" glyph-name="reset_hover_24px" d="M808.005 722.412l-30.17 30.17-551.385-551.385 30.17-30.17zM256.62 752.581l-30.17-30.17 551.385-551.385 30.17 30.17z" />
<glyph unicode="&#xe91b;" glyph-name="settings_24px" d="M764.587 413.867c0 10.24 3.413 20.48 3.413 34.133s0 23.893-3.413 34.133l71.68 58.027c6.827 6.827 6.827 13.653 3.413 20.48l-68.267 119.467c-3.413 3.413-10.24 6.827-20.48 3.413l-85.333-34.133c-17.067 13.653-37.547 23.893-58.027 34.133l-13.653 88.747c3.413 10.24-6.827 17.067-13.653 17.067h-136.533c-6.827 0-17.067-6.827-17.067-13.653l-13.653-92.16c-20.48-6.827-37.547-20.48-58.027-34.133l-81.92 34.133c-10.24 3.413-17.067 0-23.893-6.827l-68.267-119.467c-3.413-3.413 0-13.653 6.827-20.48l71.68-54.613c0-10.24-3.413-20.48-3.413-34.133s0-23.893 3.413-34.133l-71.68-58.027c-6.827-6.827-6.827-13.653-3.413-20.48l68.267-119.467c3.413-3.413 10.24-6.827 20.48-3.413l85.333 34.133c17.067-13.653 37.547-23.893 58.027-34.133l13.653-88.747c0-6.827 6.827-13.653 17.067-13.653h136.533c6.827 0 17.067 6.827 17.067 13.653l13.653 88.747c20.48 10.24 40.96 20.48 58.027 34.133l85.333-34.133c6.827-3.413 17.067 0 20.48 6.827l68.267 119.467c3.413 6.827 3.413 17.067-3.413 20.48l-78.507 54.613zM512 298.667c-81.067 0-149.333 68.267-149.333 149.333s68.267 149.333 149.333 149.333c81.067 0 149.333-68.267 149.333-149.333s-68.267-149.333-149.333-149.333v0z" />
<glyph unicode="&#xe91c;" glyph-name="preview_24px-copy-2" d="M810.667 149.333h-597.333v597.333h298.667v85.333h-298.667c-47.36 0-85.333-38.4-85.333-85.333v-597.333c0-46.933 37.973-85.333 85.333-85.333h597.333c46.933 0 85.333 38.4 85.333 85.333v298.667h-85.333v-298.667zM597.333 832v-85.333h153.173l-419.413-419.413 60.16-60.16 419.413 419.413v-153.173h85.333v298.667h-298.667z" />
<glyph unicode="&#xe91d;" glyph-name="duplicate_24px" d="M654.222 839.111h-426.667c-39.111 0-71.111-32-71.111-71.111v-497.778h71.111v497.778h426.667v71.111zM760.889 696.889h-391.111c-39.111 0-71.111-32-71.111-71.111v-497.778c0-39.111 32-71.111 71.111-71.111h391.111c39.111 0 71.111 32 71.111 71.111v497.778c0 39.111-32 71.111-71.111 71.111v0zM760.889 128h-391.111v497.778h391.111v-497.778z" />
<glyph unicode="&#xe91e;" d="M298.667 832h426.667c94.257 0 170.667-76.41 170.667-170.667v-426.667c0-94.257-76.41-170.667-170.667-170.667h-426.667c-94.257 0-170.667 76.41-170.667 170.667v426.667c0 94.257 76.41 170.667 170.667 170.667z" />
<glyph unicode="&#xe91f;" d="M514.893 256.001c-14.998-0.088-29.305 6.333-39.234 17.603l-122.068 138.54c-27.571 28.61-49.503 82.53-18.366 137.925 16.512 29.39 42.723 49.721 71.918 55.812 30.819 6.388 62.91-1.825 88.123-22.507 7.23-5.948 13.616-12.656 19.079-19.978 4.597 6.432 9.874 12.359 15.766 17.658 21.932 19.66 50.019 28.555 79.093 25.168 47.408-5.575 85.797-44.586 93.345-94.889 5.442-36.361-4.378-69.006-30.018-99.793l-118.612-137.518c-9.808-11.369-24.027-17.933-39.025-18.021v0z" />
<glyph unicode="&#xe920;" glyph-name="tag_24px" d="M737.932 675.255c-10.779 17.966-32.338 28.745-57.49 28.745h-395.246c-39.525 0-71.863-32.338-71.863-71.863v-359.314c0-39.525 32.338-71.863 71.863-71.863h395.246c25.152 0 46.711 10.779 57.49 28.745l158.098 222.775-158.098 222.775zM680.442 272.823h-395.246v359.314h395.246l125.76-179.657-125.76-179.657z" />
<glyph unicode="&#xe921;" glyph-name="move_24px" d="M512 712.533l136.533-136.533 59.733 59.733-196.267 196.267-196.267-196.267 59.733-59.733 136.533 136.533zM512 183.467l-136.533 136.533-59.733-59.733 196.267-196.267 196.267 196.267-59.733 59.733-136.533-136.533z" />
<glyph unicode="&#xe922;" glyph-name="delete" d="M704 128v512h-384v-512h384zM192 109.714v658.286h640v-658.286c0-60.343-48-109.714-106.667-109.714h-426.667c-58.667 0-106.667 49.371-106.667 109.714zM64 768h896v-128h-896zM320 960h384v-128h-384z" />
<glyph unicode="&#xe923;" glyph-name="sms-24-px" d="M921.6 960h-819.2c-56.32 0-101.888-46.080-101.888-102.4l-0.512-921.6 204.8 204.8h716.8c56.32 0 102.4 46.080 102.4 102.4v614.4c0 56.32-46.080 102.4-102.4 102.4v0zM819.2 345.6h-614.4v102.4h614.4v-102.4zM819.2 499.2h-614.4v102.4h614.4v-102.4zM819.2 652.8h-614.4v102.4h614.4v-102.4z" />
<glyph unicode="&#xe924;" glyph-name="user" d="M773.047 234.356l-129.529 28.144c-94.235 14.953-190.178 14.953-284.413 0l-129.529-28.144c-83.069-13.236-144.243-85.472-144.243-170.356h832c0 84.885-61.218 157.12-144.286 170.356zM501.066 353.502c104.525 0 189.258 133.267 189.258 238.752 0 0.361-0.088 0.632-0.088 0.994h0.088v61.213c0 98.031-78.733 177.539-175.902 177.539h-26.712c-97.169 0-175.902-79.509-175.902-177.539v-61.213h0.088c0-0.361-0.088-0.632-0.088-0.994 0-105.485 84.733-238.752 189.258-238.752z" />
<glyph unicode="&#xe925;" glyph-name="email-24-px" horiz-adv-x="1280" d="M1152 960h-1024c-70.4 0-127.36-57.6-127.36-128l-0.64-768c0-70.4 57.6-128 128-128h1024c70.4 0 128 57.6 128 128v768c0 70.4-57.6 128-128 128v0zM1152 64h-1024v640l512-320 512 320v-640zM640 512l-512 320h1024l-512-320z" />
<glyph unicode="&#xe926;" glyph-name="hamburger" d="M170.667 234.667h682.667c23.564 0 42.667-19.103 42.667-42.667s-19.103-42.667-42.667-42.667h-682.667c-23.564 0-42.667 19.103-42.667 42.667s19.103 42.667 42.667 42.667zM170.667 490.667h682.667c23.564 0 42.667-19.103 42.667-42.667s-19.103-42.667-42.667-42.667h-682.667c-23.564 0-42.667 19.103-42.667 42.667s19.103 42.667 42.667 42.667zM170.667 746.667h682.667c23.564 0 42.667-19.103 42.667-42.667s-19.103-42.667-42.667-42.667h-682.667c-23.564 0-42.667 19.103-42.667 42.667s19.103 42.667 42.667 42.667z" />
<glyph unicode="&#xe927;" glyph-name="app_menu" d="M170.667 789.333h170.667v-170.667h-170.667v170.667zM170.667 533.333h170.667v-170.667h-170.667v170.667zM170.667 277.333h170.667v-170.667h-170.667v170.667zM426.667 789.333h170.667v-170.667h-170.667v170.667zM426.667 533.333h170.667v-170.667h-170.667v170.667zM426.667 277.333h170.667v-170.667h-170.667v170.667zM682.667 789.333h170.667v-170.667h-170.667v170.667zM682.667 533.333h170.667v-170.667h-170.667v170.667zM682.667 277.333h170.667v-170.667h-170.667v170.667z" />
<glyph unicode="&#xe928;" glyph-name="branding_16px" d="M512 448c0 112 93.333 205.333 205.333 205.333s205.333-93.333 205.333-205.333h-410.667zM512 448c0-112-93.333-205.333-205.333-205.333s-205.333 93.333-205.333 205.333h410.667zM512 448c-112 0-205.333 93.333-205.333 205.333s93.333 205.333 205.333 205.333v-410.667zM512 448c112 0 205.333-93.333 205.333-205.333s-93.333-205.333-205.333-205.333v410.667z" />
<glyph unicode="&#xe929;" glyph-name="logout" d="M430.507 294.827l60.16-60.16 213.333 213.333-213.333 213.333-60.16-60.16 110.080-110.507h-412.587v-85.333h412.587l-110.080-110.507zM810.667 832h-597.333c-47.36 0-85.333-38.4-85.333-85.333v-170.667h85.333v170.667h597.333v-597.333h-597.333v170.667h-85.333v-170.667c0-46.933 37.973-85.333 85.333-85.333h597.333c46.933 0 85.333 38.4 85.333 85.333v597.333c0 46.933-38.4 85.333-85.333 85.333z" />
<glyph unicode="&#xe92a;" glyph-name="more_24px" d="M512 618.667c46.933 0 85.333 38.4 85.333 85.333s-38.4 85.333-85.333 85.333c-46.933 0-85.333-38.4-85.333-85.333s38.4-85.333 85.333-85.333v0zM512 533.333c-46.933 0-85.333-38.4-85.333-85.333s38.4-85.333 85.333-85.333c46.933 0 85.333 38.4 85.333 85.333s-38.4 85.333-85.333 85.333v0zM512 277.333c-46.933 0-85.333-38.4-85.333-85.333s38.4-85.333 85.333-85.333c46.933 0 85.333 38.4 85.333 85.333s-38.4 85.333-85.333 85.333v0z" />
<glyph unicode="&#xe92b;" glyph-name="preview_24px" d="M810.667 149.333h-597.333v597.333h298.667v85.333h-298.667c-47.36 0-85.333-38.4-85.333-85.333v-597.333c0-46.933 37.973-85.333 85.333-85.333h597.333c46.933 0 85.333 38.4 85.333 85.333v298.667h-85.333v-298.667zM597.333 832v-85.333h153.173l-419.413-419.413 60.16-60.16 419.413 419.413v-153.173h85.333v298.667h-298.667z" />
<glyph unicode="&#xe92c;" glyph-name="save_24px" d="M258.438 832h99.396v-356.969h382.146v356.969h113.387c23.546 0 42.633-18.984 42.633-42.385v-683.23c0-23.409-18.984-42.385-42.385-42.385h-683.23c-23.409 0-42.385 18.994-42.385 42.626v549.393c0 23.542 13.468 56.395 29.598 72.886l100.839 103.094zM426.667 832h128v-256h-128v256z" />
<glyph unicode="&#xe92d;" glyph-name="search_24px" d="M657.807 365.877h-33.661l-11.665 11.607c41.312 48.166 66.423 110.648 66.423 179.085 0 152.119-123.327 275.431-275.46 275.431-152.119 0-275.445-123.312-275.445-275.431 0-152.133 123.327-275.445 275.445-275.445 68.423 0 130.876 25.097 179.056 66.394l11.679-11.65v-33.559l211.819-211.5 63.178 63.178-211.369 211.891zM403.445 365.877c-105.33 0-190.692 85.362-190.692 190.692 0 105.315 85.362 190.692 190.692 190.692s190.706-85.377 190.706-190.692c0-105.33-85.377-190.692-190.706-190.692v0z" />
<glyph unicode="&#xe92e;" glyph-name="checkin_24px" d="M508.364 831.942c-166.629-2.909-299.368-138.090-296.508-301.929 3.949-226.224 252.396-466.957 310.886-465.937s296.4 250.244 292.451 476.468c-2.86 163.839-140.235 294.306-306.829 291.398v0zM515.942 397.77c-76.603-1.337-139.767 58.65-141.082 133.987s59.717 137.492 136.32 138.829c76.603 1.337 139.767-58.65 141.082-133.987s-59.717-137.492-136.32-138.829v0z" />
<glyph unicode="&#xe92f;" glyph-name="deeplink" d="M461.314 542.537l140.953 143.513c37.281 37.954 97.467 37.954 134.736 0.002 37.586-38.264 37.586-100.549 0-138.824l-94.884-102.638c-11.996-12.979-11.199-33.224 1.78-45.22s33.224-11.199 45.22 1.78l94.216 101.937c61.368 62.471 61.368 164.652-0.671 227.811-62.35 63.492-163.689 63.492-226.056 0l-140.951-143.511c-56.564-57.573-62.065-148.537-13.785-212.523 10.645-14.108 30.711-16.915 44.818-6.27s16.915 30.711 6.27 44.818c-29.26 38.778-25.905 94.256 8.353 129.125zM501.749 319.067l-136.005-138.469c-37.272-37.954-97.457-37.954-134.74 0.001-37.583 38.261-37.583 100.546 0.003 138.821l91.11 95.766c12.181 12.805 11.676 33.059-1.128 45.241s-33.059 11.676-45.241-1.128l-90.757-95.401c-61.683-62.807-61.683-164.989 0.356-228.147 62.367-63.492 163.706-63.492 226.059 0.003l136.005 138.469c62.037 63.174 62.037 165.339 0.002 228.511-12.383 12.61-32.643 12.794-45.253 0.411s-12.794-32.643-0.411-45.253c37.587-38.275 37.587-100.549 0-138.824z" />
<glyph unicode="&#xe930;" glyph-name="qualify_sentiment_24px" d="M733.305 707.267c2.958-9.536 11.448-15.977 21.009-15.977h86.5c15.046 0 21.313-20.143 9.13-29.394l-69.983-53.201c-7.739-5.889-10.968-16.328-8.010-25.847l26.717-86.074c4.653-14.973-11.72-27.42-23.887-18.168l-69.983 53.201c-7.739 5.889-18.227 5.889-25.966 0l-69.983-53.201c-12.168-9.252-28.556 3.195-23.903 18.168l26.733 86.074c2.958 9.519-0.288 19.959-8.026 25.847l-69.983 53.201c-12.168 9.252-5.916 29.394 9.13 29.394h86.5c9.577 0 18.051 6.441 21.009 15.977l26.733 86.074c4.653 14.973 24.895 14.973 29.547 0l26.717-86.074zM839.314 139.749c0-37.414-30.41-67.825-67.825-67.825h-526.903c-37.414 0-67.825 30.41-67.825 67.825v526.903c0 37.414 30.41 67.825 67.825 67.825h184.156c20.336 0 36.83-16.494 36.83-36.83s-16.494-36.83-36.83-36.83h-184.156c3.245 0 5.836 2.595 5.836 5.836v-526.903c0 3.241-2.591 5.836-5.836 5.836h526.903c-3.245 0-5.836-2.595-5.836-5.836v241.377c0 20.336 16.494 36.83 36.83 36.83s36.83-16.494 36.83-36.83v-241.377zM244.587 114.59c-13.85 0-25.158 11.308-25.158 25.158v526.903c0 13.85 11.308 25.158 25.158 25.158h184.156c-3.228 0-5.836 2.609-5.836 5.836s2.609 5.836 5.836 5.836h-184.156c-20.332 0-36.83-16.521-36.83-36.83v-526.903c0-20.31 16.498-36.83 36.83-36.83h526.903c20.332 0 36.83 16.521 36.83 36.83v241.377c0-3.228-2.609-5.836-5.836-5.836s-5.836 2.609-5.836 5.836v-241.377c0-13.85-11.308-25.158-25.158-25.158h-526.903z" />
<glyph unicode="&#xe931;" glyph-name="survey_skeleton_24px" d="M128 789.333v-170.667h768v170.667zM554.667 448h341.333v85.333h-341.333zM128 448h341.333v85.333h-341.333zM810.667 106.667h85.333v85.333h-85.333zM640 106.667h85.333v85.333h-85.333zM469.333 106.667h85.333v85.333h-85.333zM298.667 106.667h85.333v85.333h-85.333zM128 106.667h85.333v85.333h-85.333zM682.667 277.333h213.333v85.333h-213.333zM640 277.333v85.333h-256v-85.333zM128 277.333h213.333v85.333h-213.333z" />
<glyph unicode="&#xe932;" glyph-name="checkmark-circled" d="M512 896c-247.4 0-448-200.6-448-448s200.6-448 448-448c247.4 0 448 200.6 448 448s-200.6 448-448 448zM741.8 597.8l-278.2-357c-2.2-2.2-5.8-7-10.2-7-4.6 0-7.6 3.2-10.2 5.8s-157.8 151.8-157.8 151.8l-3 3c-1.2 1.8-2.2 4-2.2 6.4s1 4.6 2.2 6.4c0.8 0.8 1.4 1.4 2.2 2.4 15.4 16.2 46.6 49 48.6 51 2.6 2.6 4.8 6 9.6 6 5 0 8.2-4.2 10.6-6.6s90-86.6 90-86.6l222.6 286c2 1.6 4.4 2.8 7 2.8s5-1 7-2.6l61.2-48.2c1.6-2 2.6-4.4 2.6-7 0.2-2.6-0.8-4.8-2-6.6z" />
<glyph unicode="&#xe933;" glyph-name="radio-on-button" d="M512 704c-143.36 0-256-112.64-256-256s112.64-256 256-256c143.36 0 256 112.64 256 256s-112.64 256-256 256zM512 960c-281.6 0-512-230.4-512-512s230.4-512 512-512 512 230.4 512 512-230.4 512-512 512zM512 38.4c-225.28 0-409.6 184.32-409.6 409.6s184.32 409.6 409.6 409.6 409.6-184.32 409.6-409.6-184.32-409.6-409.6-409.6z" />
<glyph unicode="&#xe934;" glyph-name="checked-data" d="M866.882 506.539c7.567-29.542 11.994-60.347 11.994-92.211 0-206.045-167.595-373.634-373.629-373.634-206.031 0-373.665 167.586-373.665 373.634 0 206.037 167.634 373.669 373.665 373.669 52.512 0 102.443-11.018 147.83-30.646l55.546 89.289c-61.815 29.206-130.589 46.042-203.376 46.042-263.765 0-478.361-214.596-478.361-478.353 0-263.736 214.596-478.328 478.361-478.328 263.726 0 478.318 214.592 478.318 478.328 0 73.305-17.071 142.544-46.644 204.703l-70.038-112.492zM955.96 946.821c-40.89 25.428-94.7 12.96-120.16-27.932l-346.88-557.418-116.201 165.717c-27.635 39.431-82.096 48.977-121.526 21.338-39.422-27.674-49.003-82.056-21.334-121.522l191.956-273.755c16.368-23.305 43.045-37.144 71.433-37.144 0.782 0 1.604 0 2.388 0.037 29.27 0.817 56.201 16.246 71.662 41.102l416.614 669.421c25.486 40.937 12.941 94.711-27.953 120.156z" />
<glyph unicode="&#xe935;" glyph-name="check-mark-in-a-circle" d="M512 960c-282.266 0-512-229.709-512-512s229.734-512 512-512c282.342 0 512 229.709 512 512s-229.658 512-512 512zM737.741 502.4l-219.187-219.238c-15.258-15.232-35.251-22.861-55.245-22.861-19.942 0-39.962 7.629-55.194 22.861l-121.805 121.805c-30.49 30.49-30.49 79.974 0 110.413 30.49 30.515 79.898 30.515 110.438 0l66.56-66.56 164.045 164.019c30.413 30.438 79.949 30.438 110.387 0 30.515-30.49 30.515-79.949 0-110.438z" />
<glyph unicode="&#xe936;" glyph-name="move-up-16-px" d="M384 704h256v-256h170.667l-298.667-298.667-298.667 298.667h170.667z" />
<glyph unicode="&#xe937;" glyph-name="edit-24-px" d="M231.279 190.719l24.721 60.066v-144.119l-85.333 85.333h144.119l-60.612-25.267 357.39 360.639-23.438 23.438-356.847-360.091zM170.667 250.785l417.185 420.978 144.119-144.119-417.185-420.978h-144.119v144.119zM841.956 690.726l-87.23 87.23c-15.17 15.17-37.926 15.17-53.096 0l-68.267-68.267 144.119-144.119 64.474 72.059c15.17 15.17 15.17 37.926 0 53.096z" />
<glyph unicode="&#xe938;" glyph-name="duplicate-24-px" d="M654.222 839.111h-426.667c-39.111 0-71.111-32-71.111-71.111v-497.778h71.111v497.778h426.667v71.111zM760.889 696.889h-391.111c-39.111 0-71.111-32-71.111-71.111v-497.778c0-39.111 32-71.111 71.111-71.111h391.111c39.111 0 71.111 32 71.111 71.111v497.778c0 39.111-32 71.111-71.111 71.111v0zM760.889 128h-391.111v497.778h391.111v-497.778z" />
<glyph unicode="&#xe939;" glyph-name="show-24-px" horiz-adv-x="1408" d="M704 928c-320 0-593.28-199.040-704-480 110.72-280.96 384-480 704-480s593.28 199.040 704 480c-110.72 280.96-384 480-704 480zM704 128c-176.64 0-320 143.36-320 320s143.36 320 320 320c176.64 0 320-143.36 320-320s-143.36-320-320-320zM704 640c-106.24 0-192-85.76-192-192s85.76-192 192-192c106.24 0 192 85.76 192 192s-85.76 192-192 192z" />
<glyph unicode="&#xe93a;" glyph-name="hide-24-px" horiz-adv-x="1186" d="M592.842 744.421c148.749 0 269.474-120.724 269.474-269.474 0-35.032-7.006-67.907-19.402-98.627l157.373-157.373c81.381 67.907 145.516 155.756 184.859 256-93.238 236.598-323.368 404.211-592.842 404.211-75.453 0-147.672-13.474-214.501-37.726l116.413-116.413c30.72 12.396 63.596 19.402 98.627 19.402zM53.895 891.554l147.672-147.672c-89.465-69.524-159.528-162.223-201.566-268.935 93.238-236.598 323.368-404.211 592.842-404.211 83.537 0 163.301 16.168 236.059 45.272l22.636-22.636 157.912-157.373 68.446 68.446-955.554 955.554-68.446-68.446zM351.933 593.516l83.537-83.537c-2.695-11.318-4.312-23.175-4.312-35.032 0-89.465 72.219-161.684 161.684-161.684 11.857 0 23.714 1.617 35.032 4.312l83.537-83.537c-36.109-17.785-75.992-28.564-118.568-28.564-148.749 0-269.474 120.724-269.474 269.474 0 42.577 10.779 82.459 28.564 118.568v0zM584.219 635.554l169.768-169.768 1.078 8.623c0 89.465-72.219 161.684-161.684 161.684l-9.162-0.539z" />
<glyph unicode="&#xe93b;" glyph-name="ic-keyboard-backspace-black-18-px" d="M512-64c282.77 0 512 229.23 512 512s-229.23 512-512 512c-282.77 0-512-229.23-512-512s229.23-512 512-512zM213.333 490.667h433.92l-152.747 153.173 60.16 60.16 256-256-256-256-60.16 60.16 152.747 153.173h-433.92v85.333z" />
<glyph unicode="&#xe93c;" glyph-name="skip-24-px-copy" d="M835.84 661.333l-323.84-323.84-238.507 238.507h195.84v85.333h-341.333v-341.333h85.333v195.84l298.667-298.667 384 384z" />
<glyph unicode="&#xe93d;" glyph-name="skip-24-px" d="M853.333 320l-256-256-60.587 60.587 153.173 152.747h-476.587v512h85.333v-426.667h391.253l-153.173 152.747 60.587 60.587z" />
<glyph unicode="&#xe93e;" glyph-name="pickone_check" d="M552.858 77.145c-229.553 0-415.643 186.090-415.643 415.643s186.090 415.643 415.643 415.643c229.553 0 415.643-186.090 415.643-415.643s-186.090-415.643-415.643-415.643zM552.858 118.771c206.564 0 374.017 167.453 374.017 374.017s-167.453 374.017-374.017 374.017c-206.564 0-374.017-167.453-374.017-374.017s167.453-374.017 374.017-374.017zM397.831 493.907l-32.507-26.001 131.363-164.236 264.123 330.212-32.507 26.001-231.616-289.571z" />
<glyph unicode="&#xe93f;" glyph-name="pickone_cross" d="M697.273 665.187l-319.936-323.679 30.345-29.994 319.936 323.679zM377.337 635.193l319.936-323.679 30.345 29.994-319.936 323.679zM552.415 68.357c-229.466 0-415.384 188.093-415.384 419.993s185.918 419.993 415.384 419.993c229.466 0 415.384-188.093 415.384-419.993s-185.918-419.993-415.384-419.993zM552.415 111.023c205.79 0 372.717 168.88 372.717 377.327s-166.927 377.327-372.717 377.327c-205.79 0-372.717-168.88-372.717-377.327s166.927-377.327 372.717-377.327z" />
<glyph unicode="&#xe940;" glyph-name="arrow-pointing-left" d="M1024 512h-780.8l358.4 358.4-89.6 89.6-512-512 512-512 89.6 89.6-358.4 358.4h780.8v128z" />
<glyph unicode="&#xe941;" glyph-name="bulk-tag" d="M737.909 674.743c-10.779 18.286-32.337 29.257-57.488 29.257h-395.228c-39.523 0-71.86-32.914-71.86-73.143v-365.714c0-40.229 32.337-73.143 71.86-73.143h395.228c25.151 0 46.709 10.971 57.488 29.257l158.091 226.743-158.091 226.743zM709.149 234.667h-453.149v426.667h453.149l144.184-213.333-144.184-213.333z" />
<glyph unicode="&#xe942;" glyph-name="account_16px" d="M699.665 681.621c2.56 99.695-79.214 182.379-181.438 182.379h-6.227c-104.463 0-192.664-82.786-187.636-183.159-0.040-7.567 2.573-25.339 7.436-53.121 0.661-3.761 0.661-3.761 1.325-7.494 3.15-17.635 6.293-34.212 8.399-44.98 15.672-91.608 80.796-159.246 168.399-159.246 87.073 0 151.99 66.681 170.451 159.123 2.375 11.853 5.935 29.914 9.499 48.598 0.379 1.988 0.379 1.988 0.757 3.98 4.812 25.356 7.898 42.879 8.838 51.113l0.196 2.807zM635.882 686.070c-0.681-5.965-3.687-23.031-8.128-46.438-0.372-1.96-0.372-1.96-0.746-3.918-3.52-18.453-7.046-36.341-9.39-48.037-12.98-64.998-54.53-107.677-107.694-107.677-53.283 0-94.502 42.81-105.453 106.788-2.181 11.198-5.265 27.463-8.343 44.691-0.646 3.63-0.646 3.63-1.287 7.275-3.97 22.684-6.517 40.007-6.517 43.688-3.15 63.667 54.267 117.558 123.676 117.558h6.227c66.444 0 119.090-53.232 117.459-116.737l0.196 2.807zM128 96l31.883-34.729 12.454 145.516c5.182 33.603 45.384 65.464 96.063 74.275l247.719 32.13-8.206-0.004 251.157-32.337c58.14-11.012 94.049-39.545 96.697-79.514l6.189-138.764 31.968 33.427h-765.924zM927.385 32l-7.72 172.88c-4.981 75.284-65.085 123.043-150.582 139.156l-252.997 32.628-8.206-0.004-249.081-32.337c-76.645-13.296-139.846-63.386-149.981-129.994l-12.702-147.6-2.972-34.729h834.241z" />
<glyph unicode="&#xe943;" glyph-name="reassign-location" d="M129.707 233.813h32.768s53.077 3.925 67.584 5.888c36.907 4.907 59.989 11.52 79.147 25.899 18.005 13.525 38.912 36.053 139.776 161.195l1.664 2.048c84.907 105.387 126.293 154.027 138.709 161.408 9.899 5.888 58.581 9.387 125.013 9.387 25.941 0 95.573-2.176 95.573-2.176v39.509h-94.123c-78.251 0-127.915-3.2-148.309-15.317-19.115-11.349-55.339-53.931-149.333-170.496l-1.621-2.091c-94.165-116.821-119.083-144.171-132.864-154.539-9.088-6.827-22.912-15.445-51.413-17.579-19.627-1.451-59.435 0-59.435 0h-43.093v-43.093zM699.947 515.669l22.741-19.883 132.907 127.317-139.819 123.563-21.888-20.693 117.333-103.68zM133.035 621.099h84.907s55.424 1.451 66.987-2.688c12.288-4.395 26.24-14.635 40.363-28.928 7.467-7.552 52.565-49.152 58.88-57.301 3.755-4.907 37.248 16.043 32.939 21.632-7.211 9.344-53.333 52.053-61.952 60.843-17.92 18.176-36.395 31.659-55.595 38.528-18.005 6.485-81.579 5.12-81.579 5.12h-84.949v-37.205zM501.333 376.448c7.253-13.227 15.019-26.496 22.955-38.912 6.571-10.368 13.013-19.712 19.2-27.819 14.251-18.645 26.624-30.421 39.851-34.603 15.189-4.864 61.739-4.779 137.728-4.779 31.019 0 73.387 1.579 73.387 1.579h16.64v37.803l-17.749-0.469s-38.229-2.56-72.832-1.579c-67.584 1.92-116.267 0.085-125.056 2.901-2.987 0.939-11.179 8.704-20.779 21.291-5.398 7.054-11.132 15.261-16.53 23.704-8.302 13.202-15.684 25.789-22.638 38.418-4.181 7.552-38.613-9.6-34.219-17.536zM693.888 179.797l23.168-20.011 138.539 127.232-138.368 123.648-22.869-20.309 115.925-103.637z" />
<glyph unicode="&#xe944;" glyph-name="campaign_16px" d="M242.014 136.338v-70.374l206.954 180.513-42.069 48.231-153.92-134.255 53.034-24.115v277.566h-64zM952.461 806.623l33.362 64.612-966.729-262.398 560.263-524.796 373.103 722.581zM592.22 159.687l-487.511 456.649-13.494-54.237 841.195 228.324-36.816 45.564-353.684-684.973 50.309 8.673zM257.019 441.013l33.989-54.229 650.014 407.407-33.989 54.229z" />
<glyph unicode="&#xe945;" glyph-name="competitors_16px" d="M512.873 768v32h64v-737.386h-64v32zM521.373 822.627l22.627 22.627 45.255-45.255-173.255-173.255-45.255 45.255 22.627 22.627zM694.627 694.627l22.627-22.627-45.255-45.255-173.255 173.255 45.255 45.255 22.627-22.627zM256 320v32h64v-288h-64v32zM265.373 374.627l22.627 22.627 45.255-45.255-173.255-173.255-45.255 45.255 22.627 22.627zM438.627 246.627l22.627-22.627-45.255-45.255-173.255 173.255 45.255 45.255 22.627-22.627zM768 448v32h64v-416h-64v32zM777.373 502.627l22.627 22.627 45.255-45.255-173.255-173.255-45.255 45.255 22.627 22.627zM950.627 374.627l22.627-22.627-45.255-45.255-173.255 173.255 45.255 45.255 22.627-22.627z" />
<glyph unicode="&#xe946;" glyph-name="dashboard_16px" d="M734.275 64c54.482 0 97.725 41.676 97.725 91.865v428.483l23.669-49.693-384 311.652h80.662l-384-311.652 23.669 49.693v-428.483c0-50.189 43.243-91.865 97.725-91.865h444.551zM289.725 0c-89.31 0-161.725 69.791-161.725 155.865v428.483l384 311.652 384-311.652v-428.483c0-86.074-72.414-155.865-161.725-155.865h-444.551zM384 256l64 64v-320l-64 64h256l-64-64v320l64-64h-256zM640 320v-320h-256v320h256z" />
<glyph unicode="&#xe947;" d="M227.556 960h568.889c125.675 0 227.556-101.88 227.556-227.556v-568.889c0-125.675-101.88-227.556-227.556-227.556h-568.889c-125.675 0-227.556 101.88-227.556 227.556v568.889c0 125.675 101.88 227.556 227.556 227.556z" />
<glyph unicode="&#xe948;" glyph-name="info" d="M512 0c-247.424 0-448 200.576-448 448s200.576 448 448 448c247.424 0 448-200.576 448-448s-200.576-448-448-448zM512 64c212.077 0 384 171.923 384 384s-171.923 384-384 384c-212.077 0-384-171.923-384-384s171.923-384 384-384zM512 576c35.346 0 64 28.654 64 64s-28.654 64-64 64c-35.346 0-64-28.654-64-64s28.654-64 64-64zM448 512h128v-320h-128v320zM384 512h192v-64h-192v64z" />
<glyph unicode="&#xe949;" glyph-name="survey_16px" d="M293.761 832c-88.23 0-159.66-71.605-159.66-160.043v-588.852l575.69-2.188c88.498-0.336 160.052 70.772 160.052 159.414v159.879c0 17.673-14.327 32-32 32s-32-14.327-32-32v-159.879c0-53.165-42.717-95.616-95.809-95.414l-543.812 2.066 31.878-32v556.973c0 53.126 42.811 96.043 95.66 96.043h378.239c17.673 0 32 14.327 32 32s-14.327 32-32 32h-378.239zM451.7 323.9l55.207 3.032-160.523 149.195c-15.534 14.438-39.832 13.549-54.27-1.985s-13.549-39.832 1.985-54.27l189.7-176.313 418.016 484.141c13.86 16.052 12.082 40.301-3.97 54.161s-40.301 12.082-54.161-3.97l-391.984-453.992z" />
<glyph unicode="&#xe94a;" glyph-name="email_24px" d="M853.333 789.333h-682.667c-46.933 0-84.907-38.4-84.907-85.333l-0.427-512c0-46.933 38.4-85.333 85.333-85.333h682.667c46.933 0 85.333 38.4 85.333 85.333v512c0 46.933-38.4 85.333-85.333 85.333v0zM853.333 192h-682.667v426.667l341.333-213.333 341.333 213.333v-426.667zM512 490.667l-341.333 213.333h682.667l-341.333-213.333z" />
<glyph unicode="&#xe94b;" d="M463.531 215.495l-162.702 184.718c-36.807 38.116-65.991 110.023-24.519 183.865 22.016 39.253 56.946 66.332 95.858 74.411 8.291 1.744 17.817 2.743 27.577 2.743 34.348 0 65.807-12.369 90.166-32.896 9.46-7.791 17.937-16.723 25.218-26.451 6.144 8.533 13.141 16.498 21.049 23.495 23.515 21.418 54.919 34.534 89.387 34.534 5.649 0 11.216-0.352 16.68-1.036 62.552-7.329 113.752-59.382 123.821-126.454 7.282-48.469-5.86-91.989-40.050-133.063l-158.151-183.353c-12.768-14.736-31.509-24.002-52.415-24.002-20.64 0-39.171 9.032-51.855 23.36z" />
<glyph unicode="&#xe94c;" glyph-name="helicopter" horiz-adv-x="1132" d="M996.029 457.054c10.364 0.261 18.666 8.724 18.666 19.127 0 3.514-0.947 6.806-2.6 9.636-5.176 8.804-10.107 16.227-15.389 23.374-2.899 3.953-8.356 6.955-14.515 6.955-4.215 0-8.101-1.406-11.215-3.775-4.571-3.507-7.519-9.026-7.519-15.233 0-4.25 1.382-8.178 3.721-11.357 4.544-6.199 8.855-12.774 12.736-19.457 3.503-5.928 9.701-9.27 16.168-9.27zM925.965 528.842c3.209-2.71 7.392-4.357 11.96-4.357 5.818 0 11.012 2.672 14.422 6.856 2.673 3.296 4.275 7.498 4.275 12.075 0 5.854-2.622 11.095-6.755 14.615-20.507 17.269-65.401 44.486-105.014 49.067-0.672 0.086-1.449 0.135-2.238 0.135-9.652 0-17.587-7.355-18.505-16.766-0.090-0.747-0.138-1.524-0.138-2.311 0-9.659 7.238-17.627 16.587-18.775 29.68-3.458 67.783-25.771 85.407-40.538zM280.845 198.144h-74.914c-10.348-0.091-18.702-8.501-18.702-18.862 0-0.038 0-0.076 0-0.114 0-0.026 0-0.064 0-0.103 0-10.361 8.354-18.771 18.693-18.862h74.922c10.372 0.061 18.756 8.483 18.756 18.863 0 0.038 0 0.076 0 0.114 0 0.026 0 0.064 0 0.102 0 10.38-8.384 18.802-18.75 18.863zM280.845 293.107c0 0.032 0 0.070 0 0.108 0 10.361-8.354 18.771-18.693 18.862h-131.081c-10.348-0.091-18.702-8.501-18.702-18.862 0-0.038 0-0.076 0-0.114 0-0.026 0-0.064 0-0.103 0-10.361 8.354-18.771 18.693-18.862h131.135c10.348 0.091 18.702 8.501 18.702 18.862 0 0.038 0 0.076 0 0.114zM262.198 407.040c0 0.032 0 0.070 0 0.108 0 10.38-8.384 18.802-18.75 18.863h-187.29c-10.348-0.091-18.702-8.501-18.702-18.862 0-0.038 0-0.076 0-0.114 0-0.026 0-0.064 0-0.103 0-10.361 8.354-18.771 18.693-18.862h187.293c10.372 0.061 18.756 8.483 18.756 18.863 0 0.038 0 0.076 0 0.114zM224.741 900.716c0-0.032 0-0.070 0-0.108 0-10.361 8.354-18.771 18.693-18.862 9.332 0 104.564 8.731 213.001 18.971-108.382 10.294-203.668 19.025-212.992 19.079-10.348-0.091-18.702-8.501-18.702-18.862 0-0.057 0-0.114 0.001-0.171zM854.555 900.77c108.382-10.24 203.722-18.917 212.938-18.971 10.372 0.061 18.756 8.483 18.756 18.863 0 0.038 0 0.076 0 0.114 0 0.042 0.001 0.099 0.001 0.156 0 10.38-8.384 18.802-18.75 18.863-9.276 0-104.562-8.731-212.944-19.025zM187.284 900.77c0 31.421 25.223 56.967 56.158 56.967 20.749 0 365.083-33.307 412.025-37.888 47.050 4.581 391.33 37.888 412.025 37.888 31.091-0.213 56.213-25.467 56.213-56.588 0-0.133 0-0.266-0.001-0.399 0.001-0.092 0.001-0.225 0.001-0.358 0-31.121-25.122-56.375-56.193-56.588-18.883 0-307.113 27.756-393.29 36.109v-112.047h18.701c10.372-0.061 18.756-8.483 18.756-18.863 0-0.038 0-0.076 0-0.114 0-0.042 0.001-0.099 0.001-0.156 0-10.38-8.384-18.802-18.75-18.863h-74.919c-10.348 0.091-18.702 8.501-18.702 18.862 0 0.057 0 0.114 0.001 0.171 0 0.024 0 0.062 0 0.1 0 10.361 8.354 18.771 18.693 18.862h18.764v112.047c-86.178-8.354-374.407-36.109-393.324-36.109-31.074 0.274-56.159 25.528-56.159 56.641 0 0.114 0 0.229 0.001 0.343zM711.303 410.813l-37.457 189.871c-1.695 8.757-9.301 15.28-18.431 15.28-1.278 0-2.526-0.128-3.733-0.371-8.535-1.884-14.915-9.488-14.915-18.582 0-1.332 0.137-2.633 0.398-3.888l37.489-189.963c10.671-50.661 36.81-81.543 74.483-89.088v-134.845c0-0.032 0-0.070 0-0.108 0-10.361 8.354-18.771 18.693-18.862 10.38 0.061 18.764 8.483 18.764 18.863 0 0.038 0 0.076 0 0.114v132.899h243.443c10.372 0.061 18.756 8.483 18.756 18.863 0 0.057 0 0.114-0.001 0.171 0 0.023 0 0.061 0 0.099 0 10.38-8.384 18.802-18.75 18.863h-262.204c-10.779 0-43.763 0-56.536 60.685zM1104.95 84.264c-10.348-0.091-18.702-8.501-18.702-18.862 0-0.038 0-0.076 0-0.114 0-53.619-46.888-56.853-56.212-56.961h-118.568l-13.905 33.954c-2.832 6.913-9.509 11.694-17.303 11.694-2.606 0-5.088-0.535-7.341-1.501-6.712-2.957-11.398-9.667-11.398-17.471 0-2.624 0.53-5.124 1.488-7.4l7.876-19.277h-280.953l7.976 19.402c0.906 2.145 1.433 4.638 1.433 7.255 0 7.822-4.707 14.544-11.443 17.489-2.242 0.955-4.707 1.483-7.296 1.483-7.786 0-14.458-4.772-17.25-11.551l-14.058-34.078h-193.482c-10.348-0.091-18.702-8.501-18.702-18.862 0-0.038 0-0.076 0-0.114 0-0.042-0.001-0.099-0.001-0.157 0-10.361 8.354-18.771 18.694-18.862h674.232c32.445 0 93.669 19.887 93.669 94.963 0 0.032 0 0.070 0 0.108 0 10.38-8.384 18.802-18.75 18.863zM1123.705 350.127c0-188.847-75.992-265.863-262.198-265.863h-206.040c-189.332 0-284.456 78.471-318.033 262.413l-18.701 94.639c-0.238 1.128-0.374 2.425-0.374 3.753 0 9.113 6.407 16.729 14.962 18.59 1.215 0.247 2.466 0.376 3.748 0.376 9.111 0 16.704-6.496 18.401-15.109l18.721-95.081c30.451-166.696 109.299-231.586 281.331-231.586h205.986c165.942 0 224.741 59.608 224.741 227.867 0 167.505-134.413 303.805-299.655 303.805h-589.555c-25.654 0-49.583 18.216-64.135 48.775l-18.54 37.726c-6.036 13.581-17.408 27.486-28.888 27.486h-45.595l16.115-130.641c11.156-52.871 61.763-97.28 112.478-97.28h224.741c10.372-0.061 18.756-8.483 18.756-18.863 0-0.038 0-0.076 0-0.114 0-0.026 0-0.064 0-0.102 0-10.38-8.384-18.802-18.75-18.863h-224.747c-68.554 0-134.198 56.589-149.396 128.97l-18.917 153.492c-0.094 0.714-0.148 1.539-0.148 2.377 0 4.81 1.77 9.207 4.695 12.575 3.404 3.9 8.408 6.371 13.989 6.39h66.779c30.235 0 52.278-25.438 62.733-49.26l18.378-37.187c6.36-13.474 17.624-27.486 30.451-27.486h589.555c185.883 0 337.112-153.331 337.112-341.8z" />
<glyph unicode="&#xe951;" glyph-name="insights_16px" d="M261.682 207.207c-73.404 0-133.682 63.931-133.682 143.723s60.278 143.723 133.682 143.723c73.404 0 133.682-63.931 133.682-143.723h64c0 114.324-88.062 207.723-197.682 207.723s-197.682-93.4-197.682-207.723c0-114.324 88.062-207.723 197.682-207.723s197.682 93.4 197.682 207.723h-64c0-79.792-60.278-143.723-133.682-143.723zM301.965 735.126c10.174 20.439 29.616 32.874 50.443 32.874 32.249 0 58.812-29.431 57.329-65.622l-14.341-350.138 63.946-2.619 14.341 350.138c2.936 71.673-51.731 132.242-121.276 132.242-45.479 0-86.899-26.493-107.714-68.31l-155.221-310.594 57.249-28.61 155.244 310.639zM777.136 143.207c109.619 0 197.682 93.4 197.682 207.723s-88.062 207.723-197.682 207.723c-109.619 0-197.682-93.4-197.682-207.723h64c0 79.792 60.278 143.723 133.682 143.723s133.682-63.931 133.682-143.723c0-79.792-60.278-143.723-133.682-143.723s-133.682 63.931-133.682 143.723h-64c0-114.324 88.062-207.723 197.682-207.723zM794.31 764.518c-21.14 41.488-62.246 67.482-107.297 67.482-70.139 0-124.819-60.574-121.883-132.242l14.359-350.14 63.946 2.622-14.359 350.138c-1.482 36.183 25.092 65.621 57.329 65.621 21.235 0 40.513-12.191 50.74-32.259l154.734-311.197 57.307 28.494-154.876 311.479zM469.416 358.128c11.605 12.164 27.39 19.376 49.993 19.376s38.388-7.212 49.993-19.376c6.836-7.166 10.635-14.169 11.725-17.407l60.656 20.417c-3.839 11.406-11.955 26.368-26.074 41.168-23.321 24.445-55.614 39.198-96.3 39.198s-72.979-14.754-96.3-39.198c-14.119-14.8-22.235-29.762-26.074-41.168l60.656-20.417c1.090 3.238 4.888 10.241 11.725 17.407zM479.479 380.632c10.594 10.219 23.461 16.092 39.926 16.092s29.332-5.872 39.926-16.092c6.512-6.282 10.541-12.461 11.886-15.389l58.155 26.722c-4.412 9.602-12.636 22.217-25.609 34.731-21.88 21.106-50.196 34.029-84.358 34.029s-62.478-12.923-84.358-34.029c-12.973-12.513-21.197-25.129-25.609-34.731l58.155-26.722c1.345 2.928 5.374 9.108 11.886 15.389z" />
<glyph unicode="&#xe95f;" glyph-name="reports_16px" d="M896 32v64h-768v-64zM377.043 532.293v32h-197.565v-481.561h64v449.561l-32-32h133.565l-32 32v-449.561h64zM610.783 768v32h-197.565v-736h64v704l-32-32h133.565l-32 32v-704h64zM844.522 382.439v32h-197.565v-331.707h64v299.707l-32-32h133.565l-32 32v-299.707h64z" />
<glyph unicode="&#xe960;" glyph-name="review_16px" d="M619.733 473.6l-47.648-0.047-93.497 311.225 27.881 92.808h11.064l27.881-92.808-93.497-311.225-298.744 0.295-72.461 52.078 3.868 11.989 89.234-0.088 238.407-171.346-90.741-301.574-69.58-52.293-10.735 7.492 25.079 83.348 245.757 184.701 245.757-184.701 25.079-83.348-10.735-7.492-69.58 52.293-90.741 301.574 238.407 171.346 89.234 0.088 3.868-11.989-72.461-52.078-251.096-0.248zM960 537.936l-273.771-196.762 102.656-341.174-276.885 208.096-276.885-208.096 102.656 341.174-273.771 196.762 340.331-0.336 107.669 358.4 107.669-358.4 340.331 0.336z" />
<glyph unicode="&#xe963;" glyph-name="service_16px" d="M192.375 768c-35.734 0-64.375-28.55-64.375-64.238v-676.948c0 4.905-5.032 15.957-20.902 23.763-15.96 7.85-28.038 5.026-32.275 1.737l247.258 191.866h413.919c88.787 0 160 69.074 160 153.273v306.518c0 35.35-28.746 64.028-64.375 64.028h-639.25zM831.625 832c70.963 0 128.375-57.32 128.375-128.028v-306.518c0-119.989-100.296-217.273-224-217.273h-392l-229.942-178.429c-27.145-21.064-50.058-10.232-50.058 25.062v676.948c0 71.214 57.475 128.238 128.375 128.238h639.25zM320 448c-35.346 0-64 28.654-64 64s28.654 64 64 64c35.346 0 64-28.654 64-64s-28.654-64-64-64zM512 448c-35.346 0-64 28.654-64 64s28.654 64 64 64c35.346 0 64-28.654 64-64s-28.654-64-64-64zM704 448c-35.346 0-64 28.654-64 64s28.654 64 64 64c35.346 0 64-28.654 64-64s-28.654-64-64-64z" />
<glyph unicode="&#xe965;" glyph-name="setup_16px" d="M660.87 448c0 82.218-66.651 148.87-148.87 148.87s-148.87-66.651-148.87-148.87c0-82.218 66.651-148.87 148.87-148.87s148.87 66.651 148.87 148.87zM427.13 448c0 46.872 37.997 84.87 84.87 84.87s84.87-37.997 84.87-84.87c0-46.872-37.997-84.87-84.87-84.87s-84.87 37.997-84.87 84.87zM928 507.27v29.764l-96.469 6.994c-14.698 1.074-27.544 10.371-33.164 24.014l-29.588-12.188h32l-2.451 13.118c-5.684 13.675-3.16 29.387 6.521 40.593l63.283 72.461-123.563 123.816-72.638-63.437c-11.076-9.568-26.788-12.092-40.463-6.407l-12.283 2.451-0.835-32 11.802 29.744c-13.372 5.306-22.547 17.773-23.637 32.118l-7.973 95.69h-173.541l-7.024-95.432c-1.081-14.501-10.318-27.158-23.826-32.62-13.96-5.801-29.672-3.278-40.879 6.403l-72.185 63.042-125.173-121.872 63.682-72.918c9.568-11.076 12.092-26.788 6.407-40.463-5.717-15.144-18.718-24.93-33.767-26.13l-96.239-6.977v-173.819l96.389-7.229c14.778-1.080 27.624-10.377 33.243-24.020l29.588 12.188h-32l2.451-13.118c5.684-13.675 3.16-29.387-6.521-40.593l-63.304-72.484 123.105-123.105 72.615 63.417c11.076 9.568 26.788 12.092 40.463 6.407l12.283-2.451 0.835 32-12.606-29.412c13.949-5.978 23.379-19.26 24.425-34.4l5.883-69.129 2.494-29.285h173.547l6.969 97.332c1.086 14.877 10.453 27.927 24.242 33.732l-12.417 29.493v-32l13.176 2.476c13.658 5.709 29.368 3.221 40.593-6.429l72.489-63.066 123.021 123.276-63.396 72.591c-9.568 11.076-12.092 26.788-6.407 40.463l2.451 12.283-32 0.835 29.791-11.683c5.526 14.092 18.716 23.708 33.823 24.657l96.775 7.256v144.055zM893.607 424.815l-66.783-5.009c-39.541-2.483-74.399-27.895-89.005-65.139l-2.209-11.683 32-0.835-29.549 12.283c-14.983-36.044-8.33-77.458 17.187-106.997l43.856-50.217 1.452 43.653-80.807-80.974 43.654 1.538-50.087 43.576c-29.731 25.559-71.141 32.117-107.14 17.069l12.342-29.524v32l-13.252-2.507c-35.967-15.143-60.399-49.181-63.24-88.102l-4.845-67.662 31.918 29.714h-114.365l31.885-29.285-5.843 68.619c-2.661 38.578-27.008 72.869-63.021 88.304l-12.606 2.588-0.835-32 12.283 29.549c-36.044 14.983-77.458 8.33-106.997-17.187l-50.217-43.856 43.677-1.475-80.807 80.807 1.475-43.677 43.743 50.087c25.631 29.669 32.283 71.083 17.3 107.127l-29.549-12.283h32l-2.412 13.023c-14.853 36.057-48.802 60.628-87.695 63.47l-66.721 5.004 29.607-31.91v114.365l-29.686-31.916 66.783 4.842c40.001 3.189 74.36 29.052 88.409 66.394 14.581 35.029 7.929 76.444-17.589 105.982l-43.856 50.217-1.779-43.977 82.31 80.139-43.372-1.175 50.087-43.743c29.669-25.631 71.083-32.283 107.127-17.3 35.802 14.477 60.478 48.289 63.371 87.108l4.844 65.81-31.914-29.651h114.365l-31.889 29.343 5.51-66.115c2.926-38.515 27.71-72.191 63.83-86.523l11.802-2.256 0.835 32-12.283-29.549c36.044-14.983 77.458-8.33 106.997 17.187l50.217 43.856-43.7 1.498 81.308-81.475-1.452 43.654-43.743-50.087c-25.631-29.669-32.283-71.083-17.3-107.127l29.549 12.283h-32l2.412-13.023c14.853-36.057 48.802-60.628 87.695-63.47l66.8-4.843-29.686 31.916v-114.365l29.607 31.91z" />
<glyph unicode="&#xe967;" glyph-name="social_16px" d="M191.489 832c-34.832 0-63.489-28.814-63.489-63.884v-528.182c0 5.020-5.087 16.47-22.336 24.573-17.082 8.024-28.785 4.763-32.268 1.913l187.76 153.613h330.845c61.525 0 112 51.619 112 115.989v232.050c0 35.131-28.782 63.929-63.489 63.929h-449.022zM640.511 896c69.878 0 127.489-57.276 127.489-127.929v-232.050c0-99.399-78.804-179.989-176-179.989h-308l-170.079-139.147c-28.023-22.926-49.921-12.237-49.921 23.049v528.182c0 70.184 57.079 127.884 127.489 127.884h449.022zM320 388.294v-59.042c0-99.399 71.64-179.989 160-179.989h280l152.095-136.878c26.501-23.85 47.905-12.205 47.905 25.921v512.962c0 76.58-54.947 137.963-122.727 137.963h-78.297v-64h78.297c30.806 0 58.727-31.326 58.727-73.963v-512.962c0 14.383 41.806 37.042 58.907 21.651l-170.349 153.305h-304.558c-51.226 0-96 50.368-96 115.989v59.042h-64z" />
<glyph unicode="&#xe969;" glyph-name="app_profile_24px" d="M154.8 746.667c-14.848 0-26.8-12.013-26.8-26.8v-503.626c0-14.543 11.616-26.404 26.069-26.77h1.403c14.452 0.396 26.13 12.226 26.13 26.77v503.626c0 14.787-12.043 26.8-26.8 26.8zM250.202 683.584c-14.787 0-26.77-11.982-26.77-26.8v-377.43c0-14.574 11.586-26.404 26.069-26.77h1.403c14.483 0.366 26.069 12.196 26.069 26.77v377.43c0 14.818-11.952 26.8-26.77 26.8zM677.878 660.747h-331.756c-14.818 0-26.8-12.013-26.8-26.8v-331.756c0-14.818 11.982-26.77 26.8-26.77h331.756c14.757 0 26.8 11.952 26.8 26.77v331.756c0 14.787-12.043 26.8-26.8 26.8zM773.768 683.584c-14.787 0-26.8-11.982-26.8-26.8v-377.43c0-14.574 11.647-26.404 26.13-26.77h1.372c14.239 0.366 25.733 11.83 26.069 26.038v378.832c-0.335 14.513-12.196 26.13-26.77 26.13zM869.2 746.667c-14.787 0-26.8-12.013-26.8-26.8v-503.626c0-14.543 11.616-26.404 26.099-26.77h1.403c14.483 0.396 26.099 12.226 26.099 26.77v503.626c0 14.787-11.982 26.8-26.8 26.8z" />
<glyph unicode="&#xe96c;" glyph-name="write_review_24px" d="M839.314 139.749c0-37.414-30.41-67.825-67.825-67.825h-526.903c-37.414 0-67.825 30.41-67.825 67.825v526.903c0 37.414 30.41 67.825 67.825 67.825h129.299c20.336 0 36.83-16.494 36.83-36.83s-16.494-36.83-36.83-36.83h-129.299c3.245 0 5.836 2.595 5.836 5.836v-526.903c0 3.241-2.591 5.836-5.836 5.836h526.903c-3.245 0-5.836-2.595-5.836-5.836v186.52c0 20.336 16.494 36.83 36.83 36.83s36.83-16.494 36.83-36.83v-186.52zM244.587 114.59c-13.85 0-25.158 11.308-25.158 25.158v526.903c0 13.85 11.308 25.158 25.158 25.158h129.299c-3.228 0-5.836 2.609-5.836 5.836s2.609 5.836 5.836 5.836h-129.299c-20.332 0-36.83-16.521-36.83-36.83v-526.903c0-20.31 16.498-36.83 36.83-36.83h526.903c20.332 0 36.83 16.521 36.83 36.83v186.52c0-3.228-2.609-5.836-5.836-5.836s-5.836 2.609-5.836 5.836v-186.52c0-13.85-11.308-25.158-25.158-25.158h-526.903zM744.955 786.974l-338.811-338.811c-2.072-2.072-3.616-4.596-4.558-7.346l-44.188-132.601c-2.26-6.781-0.49-14.24 4.558-19.287 3.579-3.579 8.401-5.5 13.298-5.5 1.997 0 3.993 0.339 5.952 0.942l132.601 44.188c2.788 0.904 5.312 2.486 7.346 4.558l338.849 338.849c15.332 15.37 23.808 35.787 23.808 57.523s-8.476 42.154-23.808 57.486c-30.777 30.777-84.307 30.777-115.047 0v0z" />
</font>
</defs>
</svg>
